<?xml version="1.0" encoding="UTF-8"?>
<svg width="1200pt" height="1200pt" version="1.1" viewBox="0 0 1200 1200" xmlns="http://www.w3.org/2000/svg">
 <path d="m920.5 115.25c-31.438 0.054688-61.652 12.168-84.422 33.844s-36.352 51.262-37.953 82.656h-630.25c-4.5703-0.011719-8.6836 2.7773-10.367 7.0273-1.6836 4.25-0.59766 9.0977 2.7422 12.223l346 327.38v416.38h-72c-17.672 0-34.617 7.0195-47.109 19.516-12.496 12.492-19.516 29.438-19.516 47.109v12.5c0 2.9492 1.1719 5.7812 3.2578 7.8672 2.0859 2.0859 4.918 3.2578 7.8672 3.2578h333.75c2.9492 0 5.7812-1.1719 7.8672-3.2578 2.0859-2.0859 3.2578-4.918 3.2578-7.8672v-12.5c0-17.672-7.0195-34.617-19.516-47.109-12.492-12.496-29.438-19.516-47.109-19.516h-75v-416.38l260.62-246.38c21.812 18.457 49.43 28.637 78 28.75 43.855 0 84.379-23.395 106.3-61.375 21.926-37.98 21.926-84.77 0-122.75-21.926-37.98-62.449-61.375-106.3-61.375zm-111.25 138.88h83.25l-58.25 55-14 13.375c-10.164 1.0234-19.871 4.7305-28.125 10.75-6.3242 4.9258-14.109 7.6016-22.125 7.6016s-15.801-2.6758-22.125-7.6016c-9.9805-7.3398-22.047-11.301-34.438-11.301s-24.457 3.9609-34.438 11.301c-6.3047 4.918-14.07 7.5859-22.062 7.5859s-15.758-2.668-22.062-7.5859c-9.9727-7.3594-22.043-11.332-34.438-11.332s-24.465 3.9727-34.438 11.332c-6.2852 4.9062-14.027 7.5703-22 7.5703s-15.715-2.6641-22-7.5703c-9.9727-7.3594-22.043-11.332-34.438-11.332s-24.465 3.9727-34.438 11.332c-6.293 4.8867-14.031 7.5391-22 7.5391s-15.707-2.6523-22-7.5391c-9.9648-7.3789-22.039-11.359-34.438-11.359s-24.473 3.9805-34.438 11.359c-6.293 4.8867-14.031 7.5391-22 7.5391s-15.707-2.6523-22-7.5391c-8.2148-6.0039-17.879-9.7109-28-10.75l-72.375-68.375zm-107.75 807.25-311.5 1.125v-1.125c0.03125-11.727 4.707-22.961 12.996-31.254 8.293-8.2891 19.527-12.965 31.254-12.996h223c11.727 0.03125 22.961 4.707 31.254 12.996 8.2891 8.293 12.965 19.527 12.996 31.254zm-138.25-495.88c-2.2383 2.1094-3.5078 5.0508-3.5 8.125v421.12h-31.25v-421.12c0.007812-3.0742-1.2617-6.0156-3.5-8.125l-214.62-203c2.6055 0.42969 5.2344 0.67969 7.875 0.75 12.41 0.16797 24.516-3.8398 34.375-11.375 6.293-4.8867 14.031-7.5391 22-7.5391s15.707 2.6523 22 7.5391c9.9727 7.3594 22.043 11.332 34.438 11.332s24.465-3.9727 34.438-11.332c6.2852-4.9062 14.027-7.5703 22-7.5703s15.715 2.6641 22 7.5703c9.9648 7.3789 22.039 11.359 34.438 11.359s24.473-3.9805 34.438-11.359c6.293-4.8867 14.031-7.5391 22-7.5391s15.707 2.6523 22 7.5391c9.9727 7.3594 22.043 11.332 34.438 11.332s24.465-3.9727 34.438-11.332c6.3047-4.918 14.07-7.5859 22.062-7.5859s15.758 2.668 22.062 7.5859c10.039 7.2969 22.223 11.035 34.625 10.625 2.6797-0.066406 5.3555-0.31641 8-0.75zm357.25-227c-22.668 0.125-44.707-7.457-62.5-21.5l69.75-66c3.3398-3.125 4.4258-7.9727 2.7422-12.223-1.6836-4.25-5.7969-7.0391-10.367-7.0273h-100c1.7305-26.07 13.594-50.426 33.055-67.859 19.461-17.43 44.969-26.555 71.07-25.422 26.102 1.1367 50.723 12.441 68.594 31.5 17.875 19.055 27.578 44.348 27.039 70.469-0.53906 26.121-11.277 50.996-29.922 69.297-18.645 18.305-43.711 28.582-69.836 28.641z" fill="#fff"/>
</svg>
